<svg width="134" height="46" viewBox="0 0 134 46" fill="none" xmlns="http://www.w3.org/2000/svg">
<g clip-path="url(#clip0_2_296)">
<path d="M31.0687 24.433C31.0136 18.6514 35.7921 15.8735 36.0071 15.7412C33.3174 11.8115 29.1397 11.2714 27.6515 11.2107C24.0966 10.847 20.7125 13.3051 18.9047 13.3051C17.0969 13.3051 14.3135 11.2603 11.3649 11.321C7.48471 11.3761 3.9077 13.5752 1.907 17.0475C-2.11644 24.0251 0.881854 34.3869 4.8116 40.0583C6.73514 42.8306 9.01693 45.9557 12.0262 45.8399C14.9253 45.7242 16.0166 43.966 19.511 43.966C23.0053 43.966 23.9919 45.8399 27.0508 45.7848C30.1648 45.7242 32.138 42.9519 34.045 40.1685C36.2386 36.9443 37.148 33.8302 37.2031 33.6649C37.1314 33.6373 31.1348 31.339 31.0687 24.433Z" fill="black"/>
<path d="M25.3201 7.45185C26.9184 5.51729 27.9932 2.83316 27.7011 0.154541C25.4028 0.248238 22.6194 1.68676 20.9715 3.62132C19.4944 5.3299 18.1991 8.06364 18.5519 10.6871C21.1037 10.8856 23.7272 9.3809 25.3201 7.45185ZM51.2244 30.1154L48.5789 38.1347H45.1783L53.8369 12.6493H57.8053L66.497 38.1347H62.9806L60.2579 30.1154H51.2244ZM59.58 27.5415L57.0888 20.2056C56.5211 18.5411 56.1463 17.031 55.766 15.5539H55.6943C55.314 17.064 54.9007 18.6128 54.4101 20.167L51.9189 27.536L59.58 27.5415ZM69.0764 25.8054C69.0764 23.463 69.0048 21.567 68.9221 19.8308H71.9094L72.0637 22.9724H72.1353C73.4967 20.7402 75.6517 19.4175 78.639 19.4175C83.0648 19.4175 86.3883 23.1598 86.3883 28.721C86.3883 35.3018 82.3813 38.5481 78.0713 38.5481C75.6517 38.5481 73.5353 37.4899 72.4385 35.6766H72.3668V45.6195H69.0764V25.8054ZM72.3613 30.6831C72.3613 31.1791 72.433 31.6256 72.5156 32.0445C73.1219 34.3483 75.1226 35.9411 77.5091 35.9411C81.0255 35.9411 83.0703 33.0696 83.0703 28.8698C83.0703 25.1991 81.1412 22.0685 77.6249 22.0685C75.3596 22.0685 73.2432 23.6944 72.5928 26.1912C72.477 26.6045 72.3668 27.1006 72.3668 27.5525L72.3613 30.6831ZM89.8275 25.8054C89.8275 23.463 89.7558 21.567 89.6731 19.8308H92.6604L92.8147 22.9724H92.8864C94.2477 20.7402 96.4028 19.4175 99.39 19.4175C103.816 19.4175 107.139 23.1598 107.139 28.721C107.139 35.3018 103.132 38.5481 98.8223 38.5481C96.4028 38.5481 94.2863 37.4899 93.1895 35.6766H93.1179V45.6195H89.8275V25.8054ZM93.1179 30.6831C93.1179 31.1791 93.1895 31.6256 93.2722 32.0445C93.8785 34.3483 95.8792 35.9411 98.2657 35.9411C101.782 35.9411 103.827 33.0696 103.827 28.8698C103.827 25.1991 101.898 22.0685 98.3814 22.0685C96.1162 22.0685 93.9997 23.6944 93.3493 26.1912C93.2336 26.6045 93.1234 27.1006 93.1234 27.5525L93.1179 30.6831ZM110.584 11.2879H113.913V38.1292H110.584V11.2879ZM120.604 29.5863C120.676 34.0837 123.553 35.9411 126.876 35.9411C129.257 35.9411 130.696 35.5278 131.941 34.9987L132.509 37.3797C131.341 37.9088 129.334 38.515 126.424 38.515C120.791 38.515 117.424 34.8113 117.424 29.2887C117.424 23.7661 120.676 19.4175 126.005 19.4175C131.98 19.4175 133.567 24.67 133.567 28.0376C133.567 28.721 133.496 29.2446 133.452 29.5863H120.604ZM130.36 27.2053C130.398 25.0889 129.489 21.7985 125.746 21.7985C122.379 21.7985 120.907 24.9015 120.643 27.2053H130.36Z" fill="black"/>
</g>
<defs>
<clipPath id="clip0_2_296">
<rect width="133.573" height="45.6909" fill="white" transform="translate(0 0.154541)"/>
</clipPath>
</defs>
</svg>
