<svg width="355" height="161" viewBox="0 0 355 161" fill="none" xmlns="http://www.w3.org/2000/svg">
<circle cx="352.329" cy="3.29186" r="2.64269" transform="rotate(90 352.329 3.29186)" fill="#1F7CFF"/>
<circle cx="352.329" cy="42.0511" r="2.64269" transform="rotate(90 352.329 42.0511)" fill="#1F7CFF"/>
<circle cx="352.329" cy="80.8097" r="2.64269" transform="rotate(90 352.329 80.8097)" fill="#1F7CFF"/>
<circle cx="352.329" cy="119.569" r="2.64269" transform="rotate(90 352.329 119.569)" fill="#1F7CFF"/>
<circle cx="352.329" cy="158.329" r="2.64269" transform="rotate(90 352.329 158.329)" fill="#1F7CFF"/>
<circle cx="313.57" cy="3.29137" r="2.64269" transform="rotate(90 313.57 3.29137)" fill="#1F7CFF"/>
<circle cx="313.57" cy="42.0511" r="2.64269" transform="rotate(90 313.57 42.0511)" fill="#1F7CFF"/>
<circle cx="313.57" cy="80.8097" r="2.64269" transform="rotate(90 313.57 80.8097)" fill="#1F7CFF"/>
<circle cx="313.57" cy="119.569" r="2.64269" transform="rotate(90 313.57 119.569)" fill="#1F7CFF"/>
<circle cx="313.57" cy="158.329" r="2.64269" transform="rotate(90 313.57 158.329)" fill="#1F7CFF"/>
<circle cx="274.81" cy="3.29137" r="2.64269" transform="rotate(90 274.81 3.29137)" fill="#1F7CFF"/>
<circle cx="274.81" cy="42.0511" r="2.64269" transform="rotate(90 274.81 42.0511)" fill="#1F7CFF"/>
<circle cx="274.81" cy="80.8097" r="2.64269" transform="rotate(90 274.81 80.8097)" fill="#1F7CFF"/>
<circle cx="274.81" cy="119.569" r="2.64269" transform="rotate(90 274.81 119.569)" fill="#1F7CFF"/>
<circle cx="274.81" cy="158.329" r="2.64269" transform="rotate(90 274.81 158.329)" fill="#1F7CFF"/>
<circle cx="236.051" cy="3.29137" r="2.64269" transform="rotate(90 236.051 3.29137)" fill="#1F7CFF"/>
<circle cx="236.051" cy="42.0511" r="2.64269" transform="rotate(90 236.051 42.0511)" fill="#1F7CFF"/>
<circle cx="236.051" cy="80.8097" r="2.64269" transform="rotate(90 236.051 80.8097)" fill="#1F7CFF"/>
<circle cx="236.051" cy="119.569" r="2.64269" transform="rotate(90 236.051 119.569)" fill="#1F7CFF"/>
<circle cx="236.051" cy="158.329" r="2.64269" transform="rotate(90 236.051 158.329)" fill="#1F7CFF"/>
<circle cx="197.292" cy="3.29137" r="2.64269" transform="rotate(90 197.292 3.29137)" fill="#1F7CFF"/>
<circle cx="197.292" cy="42.0511" r="2.64269" transform="rotate(90 197.292 42.0511)" fill="#1F7CFF"/>
<circle cx="197.292" cy="80.8097" r="2.64269" transform="rotate(90 197.292 80.8097)" fill="#1F7CFF"/>
<circle cx="197.292" cy="119.569" r="2.64269" transform="rotate(90 197.292 119.569)" fill="#1F7CFF"/>
<circle cx="197.292" cy="158.329" r="2.64269" transform="rotate(90 197.292 158.329)" fill="#1F7CFF"/>
<circle cx="158.532" cy="3.29137" r="2.64269" transform="rotate(90 158.532 3.29137)" fill="#1F7CFF"/>
<circle cx="158.532" cy="42.0511" r="2.64269" transform="rotate(90 158.532 42.0511)" fill="#1F7CFF"/>
<circle cx="158.532" cy="80.8097" r="2.64269" transform="rotate(90 158.532 80.8097)" fill="#1F7CFF"/>
<circle cx="158.532" cy="119.569" r="2.64269" transform="rotate(90 158.532 119.569)" fill="#1F7CFF"/>
<circle cx="158.532" cy="158.329" r="2.64269" transform="rotate(90 158.532 158.329)" fill="#1F7CFF"/>
<circle cx="119.773" cy="3.29137" r="2.64269" transform="rotate(90 119.773 3.29137)" fill="#1F7CFF"/>
<circle cx="119.773" cy="42.0511" r="2.64269" transform="rotate(90 119.773 42.0511)" fill="#1F7CFF"/>
<circle cx="119.773" cy="80.8097" r="2.64269" transform="rotate(90 119.773 80.8097)" fill="#1F7CFF"/>
<circle cx="119.773" cy="119.569" r="2.64269" transform="rotate(90 119.773 119.569)" fill="#1F7CFF"/>
<circle cx="119.773" cy="158.329" r="2.64269" transform="rotate(90 119.773 158.329)" fill="#1F7CFF"/>
<circle cx="81.0133" cy="3.29137" r="2.64269" transform="rotate(90 81.0133 3.29137)" fill="#1F7CFF"/>
<circle cx="81.0133" cy="42.0511" r="2.64269" transform="rotate(90 81.0133 42.0511)" fill="#1F7CFF"/>
<circle cx="81.0133" cy="80.8097" r="2.64269" transform="rotate(90 81.0133 80.8097)" fill="#1F7CFF"/>
<circle cx="81.0133" cy="119.569" r="2.64269" transform="rotate(90 81.0133 119.569)" fill="#1F7CFF"/>
<circle cx="81.0133" cy="158.329" r="2.64269" transform="rotate(90 81.0133 158.329)" fill="#1F7CFF"/>
<circle cx="42.254" cy="3.29137" r="2.64269" transform="rotate(90 42.254 3.29137)" fill="#1F7CFF"/>
<circle cx="42.254" cy="42.0511" r="2.64269" transform="rotate(90 42.254 42.0511)" fill="#1F7CFF"/>
<circle cx="42.2541" cy="80.8097" r="2.64269" transform="rotate(90 42.2541 80.8097)" fill="#1F7CFF"/>
<circle cx="42.254" cy="119.569" r="2.64269" transform="rotate(90 42.254 119.569)" fill="#1F7CFF"/>
<circle cx="42.254" cy="158.329" r="2.64269" transform="rotate(90 42.254 158.329)" fill="#1F7CFF"/>
<circle cx="3.49458" cy="3.29137" r="2.64269" transform="rotate(90 3.49458 3.29137)" fill="#1F7CFF"/>
<circle cx="3.49458" cy="42.0511" r="2.64269" transform="rotate(90 3.49458 42.0511)" fill="#1F7CFF"/>
<circle cx="3.49461" cy="80.8097" r="2.64269" transform="rotate(90 3.49461 80.8097)" fill="#1F7CFF"/>
<circle cx="3.49458" cy="119.569" r="2.64269" transform="rotate(90 3.49458 119.569)" fill="#1F7CFF"/>
<circle cx="3.49458" cy="158.329" r="2.64269" transform="rotate(90 3.49458 158.329)" fill="#1F7CFF"/>
</svg>
