<svg width="141" height="46" viewBox="0 0 141 46" fill="none" xmlns="http://www.w3.org/2000/svg">
<g clip-path="url(#clip0_2_287)">
<path d="M17.522 0.159363H18.7668C23.0885 0.253312 27.3397 1.99137 30.393 5.0682C29.2656 6.21908 28.1148 7.32298 27.0109 8.47386C25.2963 6.9237 23.2294 5.72585 20.9746 5.30308C17.6394 4.59846 14.0459 5.23262 11.2509 7.13509C8.19752 9.13151 6.13064 12.5137 5.68438 16.1307C5.19115 19.7008 6.2011 23.4587 8.52634 26.2302C10.7576 28.9313 14.1633 30.6224 17.6864 30.7398C20.9746 30.9277 24.4038 29.9177 26.7995 27.616C28.6784 25.9954 29.5475 23.5292 29.8293 21.1335C25.9304 21.1335 22.0315 21.157 18.1327 21.1335V16.2951H34.5503C35.3958 21.4858 34.1745 27.3341 30.2286 31.0451C27.598 33.6757 23.9575 35.2259 20.2465 35.5312C16.653 35.8835 12.942 35.2024 9.74768 33.4643C5.91925 31.4209 2.8659 27.9683 1.36272 23.905C-0.0465226 20.1705 -0.0700098 15.9428 1.24528 12.1849C2.44313 8.75571 4.74489 5.72585 7.70429 3.61199C10.5463 1.52163 13.9989 0.370748 17.522 0.159363Z" fill="black"/>
<path d="M111.706 1.37994H116.732V34.9198C115.064 34.9198 113.373 34.9433 111.706 34.8963C111.729 23.7399 111.706 12.5599 111.706 1.37994Z" fill="black"/>
<path d="M45.7302 13.0061C48.8306 12.419 52.1892 13.0766 54.7494 14.9321C57.0746 16.5762 58.6952 19.1598 59.1885 21.9783C59.8226 25.243 59.024 28.8131 56.9102 31.3967C54.6319 34.2856 50.8974 35.8358 47.2569 35.6009C43.9217 35.413 40.6805 33.7454 38.7075 31.0209C36.4762 28.0145 35.936 23.8807 37.1574 20.3577C38.3787 16.5762 41.8313 13.6873 45.7302 13.0061ZM46.4348 17.4687C45.1665 17.7975 43.9922 18.5256 43.1466 19.5591C40.8683 22.2836 41.0093 26.7227 43.5224 29.2593C44.9551 30.7155 47.116 31.3967 49.1124 30.9974C50.9679 30.6686 52.5885 29.4237 53.481 27.7796C55.0312 24.9846 54.5849 21.1327 52.2127 18.9484C50.6861 17.5392 48.4548 16.952 46.4348 17.4687Z" fill="black"/>
<path d="M70.6268 13.0062C74.1733 12.325 78.0487 13.3115 80.7028 15.8011C85.0245 19.6766 85.4942 26.9341 81.8067 31.3967C79.5754 34.2152 75.9584 35.7654 72.3883 35.6009C68.9826 35.507 65.624 33.8159 63.6041 31.0209C61.3258 27.9441 60.8326 23.7164 62.1244 20.1228C63.4162 16.4588 66.7983 13.6638 70.6268 13.0062ZM71.3314 17.4687C70.0631 17.7976 68.8887 18.5257 68.0432 19.5356C65.7884 22.2132 65.8823 26.5818 68.3015 29.1419C69.7342 30.6686 71.9655 31.4202 74.0324 30.9974C75.8644 30.6451 77.5085 29.4238 78.401 27.7797C79.9277 24.9612 79.4815 21.1093 77.0858 18.925C75.5591 17.5157 73.3278 16.952 71.3314 17.4687Z" fill="black"/>
<path d="M91.7418 14.3684C94.4429 12.6773 98.0364 12.2076 100.949 13.6638C101.865 14.0631 102.616 14.7442 103.345 15.4254C103.368 14.7912 103.345 14.1335 103.368 13.4759C104.942 13.4994 106.515 13.4759 108.112 13.4994V34.2152C108.089 37.339 107.29 40.6507 105.036 42.929C102.569 45.4421 98.788 46.2172 95.3824 45.7005C91.7418 45.1603 88.571 42.5062 87.1618 39.1475C88.571 38.4664 90.0507 37.9262 91.507 37.292C92.329 39.218 93.9966 40.8621 96.087 41.2379C98.1773 41.6137 100.597 41.097 101.959 39.3589C103.415 37.5739 103.415 35.1312 103.345 32.9469C102.264 34.0038 101.019 34.9433 99.5161 35.2956C96.2514 36.2116 92.6578 35.0842 90.1447 32.8764C87.6081 30.6686 86.1049 27.2629 86.2458 23.8808C86.3163 20.0523 88.4771 16.3648 91.7418 14.3684ZM96.6037 17.3748C95.171 17.6097 93.8322 18.4082 92.9162 19.5121C90.7084 22.1427 90.7084 26.3469 92.9397 28.9305C94.208 30.4572 96.2514 31.3028 98.2243 31.0914C100.08 30.9035 101.794 29.7291 102.71 28.1085C104.261 25.3605 104.002 21.626 101.912 19.2303C100.62 17.7506 98.5531 17.0225 96.6037 17.3748Z" fill="black"/>
<path d="M122.768 15.5663C125.587 12.9357 129.932 12.0432 133.549 13.4289C136.978 14.7207 139.163 17.9855 140.266 21.3442C135.17 23.458 130.096 25.5484 125 27.6623C125.704 29.001 126.785 30.2224 128.241 30.7156C130.284 31.4437 132.727 31.1854 134.442 29.8231C135.123 29.3064 135.663 28.6252 136.18 27.9676C137.471 28.8366 138.763 29.6822 140.055 30.5512C138.223 33.2992 135.146 35.2252 131.834 35.5305C128.17 35.9768 124.272 34.5675 121.899 31.7021C118 27.1925 118.376 19.6296 122.768 15.5663ZM125.281 19.9114C124.483 21.0623 124.154 22.4716 124.178 23.8573C127.583 22.4481 130.989 21.0388 134.395 19.6061C133.831 18.2908 132.469 17.4923 131.083 17.2809C128.852 16.8816 126.526 18.0794 125.281 19.9114Z" fill="black"/>
</g>
<defs>
<clipPath id="clip0_2_287">
<rect width="139.984" height="45.6909" fill="white" transform="translate(0.282349 0.154541)"/>
</clipPath>
</defs>
</svg>
