<svg width="192" height="46" viewBox="0 0 192 46" fill="none" xmlns="http://www.w3.org/2000/svg">
<path fill-rule="evenodd" clip-rule="evenodd" d="M75.1705 33.1822L72.5596 45.3211H66.5544L76.476 1.32839H83.5898L92.9241 45.3211H86.8535L84.3079 33.1822H75.1705ZM83.5898 28.2867L81.5663 17.7764C80.9789 14.7738 80.3914 10.8595 79.9356 7.72526H79.6734C79.2176 10.9237 78.5626 14.9696 77.9773 17.7764L75.8886 28.2867H83.5898ZM115.846 0.154541V37.1629C115.846 39.5791 115.977 43.1039 116.106 45.3221H110.82L110.428 41.472H110.233C109.188 43.6903 106.773 45.8454 103.576 45.8454C97.701 45.8454 94.111 39.4475 94.111 29.5932C94.111 18.3661 98.8749 13.0788 103.902 13.0788C106.447 13.0788 108.47 14.2549 109.58 16.6689H109.71V0.154541H115.846ZM109.709 25.6757C109.709 25.0893 109.709 24.3713 109.644 23.7164C109.318 20.8454 107.686 18.365 105.468 18.365C101.615 18.365 100.311 23.7164 100.311 29.5921C100.311 36.1196 102.008 40.6877 105.272 40.6877C106.643 40.6877 108.469 39.9697 109.514 36.1848C109.644 35.6626 109.709 34.8783 109.709 34.1624V25.6757ZM130.461 45.8443C124.131 45.8443 119.56 40.4266 119.56 29.5279C119.56 17.9733 124.977 13.0778 130.786 13.0778C137.053 13.0778 141.556 18.6913 141.556 29.3963C141.556 41.9942 135.354 45.8443 130.525 45.8443H130.461ZM130.656 41.0151C134.441 41.0151 135.29 34.2919 135.29 29.4627C135.29 24.6966 134.442 17.9091 130.526 17.9091C126.478 17.9091 125.696 24.6966 125.696 29.4627C125.696 34.7488 126.61 41.0151 130.592 41.0151H130.656ZM145.254 0.154541H151.389V17.19H151.52C153.152 14.3191 155.371 13.0778 158.178 13.0778C163.594 13.0778 166.99 19.2135 166.99 28.9394C166.99 40.296 162.355 45.8443 157.133 45.8443C154 45.8443 152.238 44.1461 150.866 41.3393H150.607L150.279 45.3211H144.993C145.124 43.1681 145.254 39.578 145.254 37.1618V0.154541ZM151.389 34.0939C151.389 34.8141 151.454 35.5321 151.65 36.0532C152.628 39.9055 154.522 40.6877 155.761 40.6877C159.417 40.6877 160.787 35.8585 160.787 29.331C160.787 23.2605 159.353 18.365 155.696 18.365C153.673 18.365 152.041 20.7801 151.584 23.0647C151.453 23.7175 151.388 24.5671 151.388 25.2188V34.0939H151.389ZM176.043 30.7007C176.108 38.86 179.632 40.8824 183.353 40.8824C185.572 40.8824 187.465 40.3613 188.836 39.7075L189.75 44.1461C187.857 45.1252 184.985 45.6485 182.178 45.6485C174.215 45.6485 170.038 39.6433 170.038 29.8521C170.038 19.4735 174.802 13.0767 181.395 13.0767C187.987 13.0767 191.055 19.4083 191.055 27.3728C191.055 28.9383 190.989 29.9185 190.925 30.766L176.043 30.7007ZM185.246 26.3284C185.311 20.7148 183.353 17.7133 180.939 17.7133C177.739 17.7133 176.303 22.3478 176.108 26.3284H185.246Z" fill="black"/>
<path fill-rule="evenodd" clip-rule="evenodd" d="M31.9765 1.44592H50.3044V45.3211L31.9765 1.44592ZM19.0652 1.44592H0.724243V45.3211L19.0652 1.44592ZM25.5219 17.6154L37.1995 45.3211H29.5472L26.055 36.4971H17.5073L25.5219 17.6154Z" fill="black"/>
<path fill-rule="evenodd" clip-rule="evenodd" d="M190.534 12.9962C190.718 12.997 190.9 13.0343 191.069 13.1058C191.239 13.1773 191.392 13.2817 191.521 13.4129C191.65 13.5441 191.752 13.6995 191.82 13.8701C191.888 14.0408 191.922 14.2233 191.92 14.4072C191.92 15.2036 191.305 15.8247 190.528 15.8247C189.756 15.8247 189.128 15.2046 189.128 14.4072C189.127 14.2226 189.163 14.0397 189.233 13.8688C189.303 13.698 189.405 13.5425 189.535 13.4115C189.665 13.2804 189.82 13.1763 189.99 13.105C190.16 13.0337 190.343 12.9968 190.528 12.9962H190.534ZM190.528 13.2149C189.907 13.2149 189.398 13.749 189.398 14.4072C189.398 15.0785 189.907 15.605 190.534 15.605C191.161 15.6115 191.662 15.0784 191.662 14.4137C191.662 13.749 191.161 13.2149 190.534 13.2149H190.528ZM190.264 15.2297H190.014V13.6544C190.146 13.6359 190.272 13.6163 190.46 13.6163C190.698 13.6163 190.854 13.6674 190.949 13.736C191.043 13.8045 191.093 13.9111 191.093 14.0623C191.093 14.269 190.955 14.3952 190.785 14.4453V14.4573C190.924 14.4823 191.018 14.6085 191.049 14.8402C191.087 15.085 191.124 15.1785 191.15 15.2297H190.887C190.848 15.1785 190.811 15.0349 190.78 14.8282C190.742 14.627 190.642 14.5519 190.44 14.5519H190.265V15.2297H190.264ZM190.264 14.3572H190.446C190.653 14.3572 190.83 14.2821 190.83 14.0874C190.83 13.9492 190.729 13.811 190.446 13.811C190.365 13.811 190.308 13.8176 190.264 13.8241V14.3572ZM52.7205 1.44592C52.9044 1.44677 53.0863 1.48402 53.2557 1.55554C53.4251 1.62706 53.5787 1.73142 53.7076 1.86261C53.8364 1.9938 53.938 2.14921 54.0065 2.31987C54.075 2.49053 54.109 2.67306 54.1065 2.85693C54.1065 3.65328 53.4919 4.27447 52.714 4.27447C51.9427 4.27447 51.315 3.65437 51.315 2.85693C51.314 2.67236 51.3494 2.4894 51.4192 2.31854C51.489 2.14768 51.5918 1.99226 51.7218 1.86119C51.8517 1.73012 52.0063 1.62598 52.1765 1.55472C52.3468 1.48346 52.5294 1.44649 52.714 1.44592H52.7205ZM52.714 1.66459C52.0928 1.66459 51.5848 2.19875 51.5848 2.85693C51.5848 3.52817 52.0928 4.05471 52.7205 4.05471C53.3472 4.06124 53.8498 3.52817 53.8498 2.86346C53.8498 2.19875 53.3472 1.66459 52.7205 1.66459H52.714ZM52.4507 3.67939H52.1994V2.1041C52.3469 2.07963 52.496 2.06727 52.6455 2.06712C52.8837 2.06712 53.0404 2.11607 53.1339 2.1857C53.2286 2.25424 53.2786 2.36193 53.2786 2.51206C53.2786 2.71877 53.1405 2.84497 52.9708 2.89501V2.90697C53.1089 2.93199 53.2036 3.0582 53.2351 3.29101C53.2721 3.53579 53.3102 3.62935 53.3352 3.68048H53.0719C53.0339 3.62935 52.9958 3.48574 52.9653 3.27904C52.9272 3.07778 52.8272 3.00271 52.6259 3.00271H52.4507V3.67939ZM52.4507 2.80689H52.6324C52.8391 2.80689 53.0154 2.73182 53.0154 2.53709C53.0154 2.39893 52.9153 2.26076 52.6324 2.26076C52.5508 2.26076 52.4943 2.26729 52.4507 2.27382V2.80689Z" fill="black"/>
</svg>
