<svg width="355" height="162" viewBox="0 0 355 162" fill="none" xmlns="http://www.w3.org/2000/svg">
<circle cx="351.977" cy="3.39342" r="2.64269" transform="rotate(90 351.977 3.39342)" fill="#F75C4E"/>
<circle cx="351.977" cy="42.1517" r="2.64269" transform="rotate(90 351.977 42.1517)" fill="#F75C4E"/>
<circle cx="351.977" cy="80.9115" r="2.64269" transform="rotate(90 351.977 80.9115)" fill="#F75C4E"/>
<circle cx="351.977" cy="119.671" r="2.64269" transform="rotate(90 351.977 119.671)" fill="#F75C4E"/>
<circle cx="351.977" cy="158.431" r="2.64269" transform="rotate(90 351.977 158.431)" fill="#F75C4E"/>
<circle cx="313.218" cy="3.39293" r="2.64269" transform="rotate(90 313.218 3.39293)" fill="#F75C4E"/>
<circle cx="313.218" cy="42.1517" r="2.64269" transform="rotate(90 313.218 42.1517)" fill="#F75C4E"/>
<circle cx="313.218" cy="80.9115" r="2.64269" transform="rotate(90 313.218 80.9115)" fill="#F75C4E"/>
<circle cx="313.218" cy="119.671" r="2.64269" transform="rotate(90 313.218 119.671)" fill="#F75C4E"/>
<circle cx="313.218" cy="158.431" r="2.64269" transform="rotate(90 313.218 158.431)" fill="#F75C4E"/>
<circle cx="274.459" cy="3.39293" r="2.64269" transform="rotate(90 274.459 3.39293)" fill="#F75C4E"/>
<circle cx="274.459" cy="42.1517" r="2.64269" transform="rotate(90 274.459 42.1517)" fill="#F75C4E"/>
<circle cx="274.459" cy="80.9115" r="2.64269" transform="rotate(90 274.459 80.9115)" fill="#F75C4E"/>
<circle cx="274.459" cy="119.671" r="2.64269" transform="rotate(90 274.459 119.671)" fill="#F75C4E"/>
<circle cx="274.459" cy="158.431" r="2.64269" transform="rotate(90 274.459 158.431)" fill="#F75C4E"/>
<circle cx="235.699" cy="3.39293" r="2.64269" transform="rotate(90 235.699 3.39293)" fill="#EF4358"/>
<circle cx="235.699" cy="42.1517" r="2.64269" transform="rotate(90 235.699 42.1517)" fill="#EF4358"/>
<circle cx="235.699" cy="80.9115" r="2.64269" transform="rotate(90 235.699 80.9115)" fill="#EF4358"/>
<circle cx="235.699" cy="119.671" r="2.64269" transform="rotate(90 235.699 119.671)" fill="#EF4358"/>
<circle cx="235.699" cy="158.431" r="2.64269" transform="rotate(90 235.699 158.431)" fill="#EF4358"/>
<circle cx="196.94" cy="3.39293" r="2.64269" transform="rotate(90 196.94 3.39293)" fill="#EF4358"/>
<circle cx="196.94" cy="42.1517" r="2.64269" transform="rotate(90 196.94 42.1517)" fill="#EF4358"/>
<circle cx="196.94" cy="80.9115" r="2.64269" transform="rotate(90 196.94 80.9115)" fill="#EF4358"/>
<circle cx="196.94" cy="119.671" r="2.64269" transform="rotate(90 196.94 119.671)" fill="#EF4358"/>
<circle cx="196.94" cy="158.431" r="2.64269" transform="rotate(90 196.94 158.431)" fill="#EF4358"/>
<circle cx="158.18" cy="3.39293" r="2.64269" transform="rotate(90 158.18 3.39293)" fill="#EF4358"/>
<circle cx="158.18" cy="42.1517" r="2.64269" transform="rotate(90 158.18 42.1517)" fill="#EF4358"/>
<circle cx="158.18" cy="80.9115" r="2.64269" transform="rotate(90 158.18 80.9115)" fill="#EF4358"/>
<circle cx="158.18" cy="119.671" r="2.64269" transform="rotate(90 158.18 119.671)" fill="#EF4358"/>
<circle cx="158.18" cy="158.431" r="2.64269" transform="rotate(90 158.18 158.431)" fill="#EF4358"/>
<circle cx="119.421" cy="3.39293" r="2.64269" transform="rotate(90 119.421 3.39293)" fill="#EF4358"/>
<circle cx="119.421" cy="42.1517" r="2.64269" transform="rotate(90 119.421 42.1517)" fill="#EF4358"/>
<circle cx="119.421" cy="80.9115" r="2.64269" transform="rotate(90 119.421 80.9115)" fill="#EF4358"/>
<circle cx="119.421" cy="119.671" r="2.64269" transform="rotate(90 119.421 119.671)" fill="#EF4358"/>
<circle cx="119.421" cy="158.431" r="2.64269" transform="rotate(90 119.421 158.431)" fill="#EF4358"/>
<circle cx="80.6616" cy="3.39293" r="2.64269" transform="rotate(90 80.6616 3.39293)" fill="#EF4358"/>
<circle cx="80.6616" cy="42.1517" r="2.64269" transform="rotate(90 80.6616 42.1517)" fill="#EF4358"/>
<circle cx="80.6616" cy="80.9115" r="2.64269" transform="rotate(90 80.6616 80.9115)" fill="#EF4358"/>
<circle cx="80.6616" cy="119.671" r="2.64269" transform="rotate(90 80.6616 119.671)" fill="#EF4358"/>
<circle cx="80.6616" cy="158.431" r="2.64269" transform="rotate(90 80.6616 158.431)" fill="#EF4358"/>
<circle cx="41.9023" cy="3.39293" r="2.64269" transform="rotate(90 41.9023 3.39293)" fill="#EF4358"/>
<circle cx="41.9023" cy="42.1517" r="2.64269" transform="rotate(90 41.9023 42.1517)" fill="#EF4358"/>
<circle cx="41.9023" cy="80.9115" r="2.64269" transform="rotate(90 41.9023 80.9115)" fill="#EF4358"/>
<circle cx="41.9023" cy="119.671" r="2.64269" transform="rotate(90 41.9023 119.671)" fill="#EF4358"/>
<circle cx="41.9023" cy="158.431" r="2.64269" transform="rotate(90 41.9023 158.431)" fill="#EF4358"/>
<circle cx="3.1429" cy="3.39293" r="2.64269" transform="rotate(90 3.1429 3.39293)" fill="#EF4358"/>
<circle cx="3.1429" cy="42.1517" r="2.64269" transform="rotate(90 3.1429 42.1517)" fill="#EF4358"/>
<circle cx="3.1429" cy="80.9115" r="2.64269" transform="rotate(90 3.1429 80.9115)" fill="#EF4358"/>
<circle cx="3.1429" cy="119.671" r="2.64269" transform="rotate(90 3.1429 119.671)" fill="#EF4358"/>
<circle cx="3.1429" cy="158.431" r="2.64269" transform="rotate(90 3.1429 158.431)" fill="#EF4358"/>
</svg>
