<svg width="181" height="46" viewBox="0 0 181 46" fill="none" xmlns="http://www.w3.org/2000/svg">
<g clip-path="url(#clip0_2_279)">
<path fill-rule="evenodd" clip-rule="evenodd" d="M57.8392 36.1308L60.0927 30.8944C62.5267 32.7145 65.7697 33.6607 68.9694 33.6607C71.3312 33.6607 72.8263 32.7506 72.8263 31.3711C72.7902 27.5141 58.677 30.5332 58.5687 20.862C58.5326 15.9506 62.8951 12.1659 69.0777 12.1659C72.7541 12.1659 76.4232 13.0759 79.0451 15.1489L76.936 20.4937C74.5381 18.9625 71.5551 17.8718 68.7166 17.8718C66.7881 17.8718 65.5169 18.7819 65.5169 19.9447C65.553 23.7294 79.7745 21.6565 79.919 30.8944C79.919 35.9141 75.6648 39.4461 69.5544 39.4461C65.0763 39.4388 60.9666 38.3843 57.8392 36.1308ZM144.374 29.002C143.248 30.9666 141.139 32.31 138.697 32.31C135.093 32.31 132.19 29.3993 132.19 25.8024C132.19 22.2054 135.101 19.2947 138.697 19.2947C141.131 19.2947 143.248 20.6381 144.374 22.6027L150.593 19.1502C148.267 15.0044 143.789 12.1659 138.697 12.1659C131.164 12.1659 125.054 18.2763 125.054 25.8096C125.054 33.3429 131.164 39.4533 138.697 39.4533C143.826 39.4533 148.267 36.6509 150.593 32.4689L144.374 29.002ZM83.0464 0.8479H90.8325V38.9332H83.0464V0.8479ZM153.648 0.8479V38.9332H161.435V27.5069L170.672 38.9332H180.64L168.888 25.3618L179.766 12.7004H170.232L161.427 23.2094V0.8479H153.648Z" fill="black"/>
<path d="M113.967 29.0743C112.84 30.9305 110.514 32.3101 107.893 32.3101C104.288 32.3101 101.385 29.3993 101.385 25.8024C101.385 22.2055 104.296 19.2947 107.893 19.2947C110.514 19.2947 112.84 20.7465 113.967 22.6388V29.0743ZM113.967 12.7076V15.7989C112.696 13.6538 109.532 12.1587 106.217 12.1587C99.377 12.1587 93.9961 18.1969 93.9961 25.7663C93.9961 33.3357 99.377 39.4461 106.217 39.4461C109.525 39.4461 112.688 37.9582 113.967 35.8059V38.8972H121.753V12.7076H113.967Z" fill="black"/>
<path fill-rule="evenodd" clip-rule="evenodd" d="M9.71418 29.0382C9.71418 31.6961 7.56903 33.8413 4.91108 33.8413C2.25312 33.8413 0.107971 31.6889 0.107971 29.0382C0.107971 26.3874 2.25312 24.235 4.91108 24.235H9.71418V29.0382ZM12.1121 29.0382C12.1121 26.3802 14.2573 24.235 16.9152 24.235C19.5732 24.235 21.7183 26.3802 21.7183 29.0382V41.0423C21.7183 43.7003 19.5732 45.8454 16.9152 45.8454C14.2573 45.8454 12.1121 43.7003 12.1121 41.0423V29.0382Z" fill="black"/>
<path fill-rule="evenodd" clip-rule="evenodd" d="M16.9152 9.76075C14.2572 9.76075 12.1121 7.6156 12.1121 4.95764C12.1121 2.29969 14.2572 0.154541 16.9152 0.154541C19.5732 0.154541 21.7183 2.29969 21.7183 4.95764V9.76075H16.9152ZM16.9152 12.1948C19.5732 12.1948 21.7183 14.3399 21.7183 16.9979C21.7183 19.6559 19.5732 21.801 16.9152 21.801H4.87494C2.21698 21.801 0.0718384 19.6486 0.0718384 16.9979C0.0718384 14.3472 2.21698 12.1948 4.87494 12.1948H16.9152Z" fill="black"/>
<path fill-rule="evenodd" clip-rule="evenodd" d="M36.1566 16.9979C36.1566 14.3399 38.3017 12.1948 40.9597 12.1948C43.6176 12.1948 45.7628 14.3399 45.7628 16.9979C45.7628 19.6559 43.6176 21.801 40.9597 21.801H36.1566V16.9979ZM33.7586 16.9979C33.7586 19.6559 31.6135 21.801 28.9555 21.801C26.2976 21.801 24.1524 19.6559 24.1524 16.9979V4.95764C24.1524 2.29969 26.2976 0.154541 28.9555 0.154541C31.6135 0.154541 33.7586 2.29969 33.7586 4.95764V16.9979Z" fill="black"/>
<path fill-rule="evenodd" clip-rule="evenodd" d="M28.9555 36.2392C31.6135 36.2392 33.7586 38.3844 33.7586 41.0423C33.7586 43.7003 31.6135 45.8454 28.9555 45.8454C26.2976 45.8454 24.1524 43.7003 24.1524 41.0423V36.2392H28.9555ZM28.9555 33.8413C26.2976 33.8413 24.1524 31.6961 24.1524 29.0382C24.1524 26.3802 26.2976 24.235 28.9555 24.235H40.9958C43.6537 24.235 45.7989 26.3802 45.7989 29.0382C45.7989 31.6961 43.6537 33.8413 40.9958 33.8413H28.9555Z" fill="black"/>
</g>
<defs>
<clipPath id="clip0_2_279">
<rect width="180.568" height="45.6909" fill="white" transform="translate(0.0718384 0.154541)"/>
</clipPath>
</defs>
</svg>
