<svg width="154" height="46" viewBox="0 0 154 46" fill="none" xmlns="http://www.w3.org/2000/svg">
<g clip-path="url(#clip0_2_294)">
<path d="M23.6364 0.154541C11.0196 0.154541 0.791138 10.3827 0.791138 22.9996C0.791138 35.6178 11.0196 45.8454 23.6364 45.8454C36.2538 45.8454 46.4817 35.6178 46.4817 22.9996C46.4817 10.3835 36.2544 0.155631 23.6362 0.155631L23.6364 0.154541ZM34.1131 33.1036C33.7029 33.7766 32.8261 33.9875 32.1552 33.5775C26.7906 30.2987 20.0382 29.558 12.086 31.3746C11.3197 31.5503 10.5558 31.0699 10.3812 30.3038C10.2058 29.5375 10.684 28.7737 11.4522 28.5991C20.1546 26.6096 27.6193 27.4659 33.6409 31.1454C34.312 31.5574 34.5248 32.4331 34.1129 33.1042L34.1131 33.1036ZM36.9094 26.884C36.3927 27.7223 35.2966 27.9853 34.4593 27.4705C28.3199 23.6966 18.9581 22.6035 11.6948 24.8083C10.7528 25.0928 9.75788 24.5619 9.47198 23.6216C9.18826 22.6796 9.71942 21.6866 10.6598 21.4001C18.9565 18.8827 29.2706 20.1021 36.3226 24.4356C37.1601 24.9512 37.4247 26.0479 36.9091 26.8843L36.9094 26.884ZM37.1494 20.4066C29.7854 16.0333 17.6386 15.6312 10.6087 17.7648C9.47988 18.1071 8.2861 17.4698 7.944 16.341C7.60191 15.2116 8.23863 14.0186 9.3683 13.6754C17.4381 11.2257 30.8532 11.699 39.3302 16.7314C40.3456 17.334 40.6787 18.6453 40.0769 19.6594C39.4767 20.6747 38.1618 21.0095 37.1497 20.4066H37.1494ZM62.9456 21.2446C59.0012 20.304 58.299 19.6438 58.299 18.2566C58.299 16.9461 59.5329 16.0641 61.3677 16.0641C63.1464 16.0641 64.9101 16.7338 66.7591 18.1126C66.8151 18.1543 66.8852 18.1709 66.9542 18.1601C67.0232 18.1497 67.0843 18.1118 67.1247 18.0548L69.0507 15.3398C69.1298 15.228 69.1082 15.0738 69.0016 14.9884C66.8009 13.2226 64.3228 12.3641 61.4261 12.3641C57.1671 12.3641 54.1922 14.92 54.1922 18.5769C54.1922 22.4984 56.7585 23.887 61.1932 24.9588C64.9677 25.8282 65.6047 26.5566 65.6047 27.8587C65.6047 29.3016 64.3165 30.1986 62.2435 30.1986C59.941 30.1986 58.063 29.423 55.9622 27.6036C55.9101 27.5586 55.8386 27.5382 55.7726 27.542C55.703 27.5477 55.6395 27.5799 55.5953 27.6331L53.4358 30.2032C53.3452 30.3099 53.3567 30.4692 53.4614 30.5614C55.9057 32.7435 58.912 33.8961 62.1562 33.8961C66.7455 33.8961 69.7112 31.3885 69.7112 27.5074C69.7194 24.231 67.7579 22.4169 62.9539 21.2482L62.9456 21.2446ZM80.094 17.3545C78.1047 17.3545 76.4731 18.1379 75.1276 19.7434V17.9363C75.1276 17.7937 75.012 17.6775 74.8696 17.6775H71.3376C71.1949 17.6775 71.0795 17.7937 71.0795 17.9363V38.0152C71.0795 38.1578 71.1949 38.274 71.3376 38.274H74.8696C75.012 38.274 75.1276 38.1578 75.1276 38.0152V31.6771C76.4734 33.1874 78.1053 33.9253 80.094 33.9253C83.7902 33.9253 87.532 31.08 87.532 25.6408C87.5374 20.2003 83.7946 17.3542 80.0981 17.3542L80.094 17.3545ZM83.4249 25.6408C83.4249 28.4106 81.7188 30.3434 79.2759 30.3434C76.8608 30.3434 75.039 28.3228 75.039 25.6408C75.039 22.9592 76.8608 20.9383 79.2759 20.9383C81.6793 20.938 83.4252 22.9153 83.4252 25.6406L83.4249 25.6408ZM97.1223 17.3545C92.3622 17.3545 88.633 21.0198 88.633 25.7C88.633 30.3292 92.3366 33.9561 97.064 33.9561C101.841 33.9561 105.582 30.303 105.582 25.6408C105.582 20.9947 101.866 17.355 97.1221 17.355L97.1223 17.3545ZM97.1223 30.371C94.5905 30.371 92.6817 28.3367 92.6817 25.6395C92.6817 22.9308 94.5245 20.9653 97.064 20.9653C99.6122 20.9653 101.534 22.9995 101.534 25.6987C101.534 28.4068 99.6788 30.371 97.1226 30.371H97.1223ZM115.747 17.6775H111.86V13.7038C111.86 13.5614 111.745 13.4452 111.602 13.4452H108.071C107.928 13.4452 107.812 13.5614 107.812 13.7038V17.6775H106.114C105.972 17.6775 105.856 17.7937 105.856 17.9363V20.9718C105.856 21.1142 105.972 21.2307 106.114 21.2307H107.812V29.085C107.812 32.259 109.392 33.8683 112.507 33.8683C113.774 33.8683 114.825 33.6067 115.816 33.045C115.896 33 115.946 32.9132 115.946 32.821V29.9304C115.946 29.8412 115.9 29.7569 115.823 29.7102C115.747 29.662 115.651 29.6595 115.572 29.6985C114.892 30.0409 114.234 30.1988 113.499 30.1988C112.365 30.1988 111.86 29.6843 111.86 28.5312V21.2321H115.747C115.889 21.2321 116.004 21.1159 116.004 20.9732V17.938C116.01 17.7953 115.895 17.6791 115.75 17.6791L115.747 17.6775ZM129.288 17.693V17.205C129.288 15.7692 129.839 15.1289 131.074 15.1289C131.81 15.1289 132.401 15.2752 133.064 15.4961C133.145 15.5218 133.23 15.509 133.297 15.4601C133.365 15.4113 133.403 15.333 133.403 15.2501V12.2738C133.403 12.16 133.33 12.0594 133.221 12.0258C132.521 11.8176 131.626 11.604 130.285 11.604C127.023 11.604 125.298 13.4411 125.298 16.9147V17.6622H123.602C123.459 17.6622 123.342 17.7784 123.342 17.9208V20.9718C123.342 21.1142 123.459 21.2307 123.602 21.2307H125.298V33.3456C125.298 33.4882 125.414 33.6045 125.556 33.6045H129.088C129.231 33.6045 129.347 33.4882 129.347 33.3456V21.2315H132.645L137.696 33.3434C137.123 34.616 136.559 34.8692 135.789 34.8692C135.167 34.8692 134.511 34.6834 133.841 34.3168C133.778 34.2821 133.704 34.2764 133.636 34.2974C133.568 34.3211 133.512 34.3713 133.483 34.4368L132.286 37.0631C132.229 37.1872 132.278 37.3329 132.397 37.3973C133.647 38.0741 134.775 38.363 136.169 38.363C138.777 38.363 140.219 37.1482 141.489 33.88L147.617 18.0465C147.648 17.9669 147.638 17.8769 147.589 17.8062C147.541 17.7361 147.463 17.6938 147.377 17.6938H143.7C143.59 17.6938 143.491 17.7639 143.455 17.8673L139.689 28.6261L135.563 17.8602C135.526 17.7601 135.429 17.6938 135.322 17.6938H129.288L129.288 17.693ZM121.437 17.6775H117.905C117.763 17.6775 117.646 17.7937 117.646 17.9363V33.3456C117.646 33.4883 117.763 33.6045 117.905 33.6045H121.437C121.58 33.6045 121.696 33.4883 121.696 33.3456V17.9374C121.696 17.9034 121.69 17.8697 121.677 17.8382C121.664 17.8067 121.644 17.7782 121.62 17.7541C121.596 17.73 121.568 17.711 121.536 17.698C121.505 17.685 121.471 17.6784 121.437 17.6785L121.437 17.6775ZM119.691 10.6613C118.292 10.6613 117.157 11.7939 117.157 13.1931C117.157 14.5932 118.292 15.7272 119.691 15.7272C121.09 15.7272 122.224 14.5932 122.224 13.1931C122.224 11.7942 121.089 10.6613 119.693 10.6613H119.691ZM150.633 22.6318C149.235 22.6318 148.147 21.5092 148.147 20.146C148.147 18.7829 149.249 17.6474 150.646 17.6474C152.044 17.6474 153.131 18.7698 153.131 20.1319C153.131 21.4951 152.029 22.6318 150.632 22.6318H150.633ZM150.646 17.8946C149.373 17.8946 148.41 18.9067 148.41 20.146C148.41 21.3848 149.366 22.3833 150.633 22.3833C151.906 22.3833 152.871 21.372 152.871 20.1319C152.871 18.8931 151.913 17.8946 150.647 17.8946H150.646ZM151.197 20.3875L151.9 21.3718H151.308L150.675 20.4688H150.13V21.3718H149.634V18.7627H150.798C151.404 18.7627 151.802 19.0728 151.802 19.595C151.805 20.0227 151.557 20.2841 151.199 20.3875H151.197V20.3875ZM150.777 19.2103H150.13V20.0356H150.777C151.1 20.0356 151.293 19.8776 151.293 19.6226C151.293 19.3541 151.099 19.2104 150.777 19.2104H150.777V19.2103Z" fill="black"/>
</g>
<defs>
<clipPath id="clip0_2_294">
<rect width="152.34" height="45.6909" fill="white" transform="translate(0.791138 0.154541)"/>
</clipPath>
</defs>
</svg>
